<mxfile host="app.diagrams.net" modified="2024-04-17T17:17:49.929Z" agent="Mozilla/5.0 (Windows NT 10.0; Win64; x64) AppleWebKit/537.36 (KHTML, like Gecko) Chrome/123.0.0.0 Safari/537.36" etag="tSl8Am30PlN2L8XpoNPY" version="24.2.3" type="device">
  <diagram id="C5RBs43oDa-KdzZeNtuy" name="Page-1">
    <mxGraphModel dx="1131" dy="1566" grid="1" gridSize="10" guides="1" tooltips="1" connect="1" arrows="1" fold="1" page="1" pageScale="1" pageWidth="827" pageHeight="1169" math="0" shadow="0">
      <root>
        <mxCell id="WIyWlLk6GJQsqaUBKTNV-0" />
        <mxCell id="WIyWlLk6GJQsqaUBKTNV-1" parent="WIyWlLk6GJQsqaUBKTNV-0" />
        <mxCell id="WIyWlLk6GJQsqaUBKTNV-5" value="NO" style="edgeStyle=orthogonalEdgeStyle;rounded=0;html=1;jettySize=auto;orthogonalLoop=1;fontSize=11;endArrow=classic;endFill=1;endSize=8;strokeWidth=1;shadow=0;labelBackgroundColor=none;entryX=0;entryY=0.5;entryDx=0;entryDy=0;" parent="WIyWlLk6GJQsqaUBKTNV-1" source="WIyWlLk6GJQsqaUBKTNV-6" target="aG4er6lKRkwGD2ePPZym-28" edge="1">
          <mxGeometry x="0.1714" y="5" relative="1" as="geometry">
            <mxPoint as="offset" />
            <mxPoint x="253.90999999999997" y="320.0833333333335" as="targetPoint" />
          </mxGeometry>
        </mxCell>
        <mxCell id="WIyWlLk6GJQsqaUBKTNV-6" value="Must Be stored Vertically?&amp;nbsp;" style="rhombus;whiteSpace=wrap;html=1;shadow=0;fontFamily=Helvetica;fontSize=12;align=center;strokeWidth=1;spacing=6;spacingTop=-4;" parent="WIyWlLk6GJQsqaUBKTNV-1" vertex="1">
          <mxGeometry x="13.909999999999997" y="265" width="120" height="110" as="geometry" />
        </mxCell>
        <mxCell id="aG4er6lKRkwGD2ePPZym-1" value="" style="shape=trapezoid;perimeter=trapezoidPerimeter;whiteSpace=wrap;html=1;fixedSize=1;size=50;" parent="WIyWlLk6GJQsqaUBKTNV-1" vertex="1">
          <mxGeometry x="82.48000000000005" y="2220" width="190" height="40" as="geometry" />
        </mxCell>
        <mxCell id="aG4er6lKRkwGD2ePPZym-2" value="" style="endArrow=none;html=1;strokeWidth=1;rounded=0;exitX=0.25;exitY=0;exitDx=0;exitDy=0;" parent="WIyWlLk6GJQsqaUBKTNV-1" edge="1">
          <mxGeometry width="50" height="50" relative="1" as="geometry">
            <mxPoint x="131.61793103448284" y="2219.999655172414" as="sourcePoint" />
            <mxPoint x="132.48000000000005" y="2170" as="targetPoint" />
          </mxGeometry>
        </mxCell>
        <mxCell id="aG4er6lKRkwGD2ePPZym-3" value="" style="endArrow=none;html=1;strokeWidth=1;rounded=0;exitX=0.75;exitY=0;exitDx=0;exitDy=0;" parent="WIyWlLk6GJQsqaUBKTNV-1" source="aG4er6lKRkwGD2ePPZym-1" edge="1">
          <mxGeometry width="50" height="50" relative="1" as="geometry">
            <mxPoint x="252.48000000000005" y="2233" as="sourcePoint" />
            <mxPoint x="222.48000000000005" y="2170" as="targetPoint" />
          </mxGeometry>
        </mxCell>
        <mxCell id="aG4er6lKRkwGD2ePPZym-4" value="" style="endArrow=none;html=1;strokeWidth=2;rounded=0;exitX=0;exitY=0;exitDx=0;exitDy=0;" parent="WIyWlLk6GJQsqaUBKTNV-1" edge="1">
          <mxGeometry width="50" height="50" relative="1" as="geometry">
            <mxPoint x="82.48000000000005" y="2260" as="sourcePoint" />
            <mxPoint x="82.48000000000005" y="2180" as="targetPoint" />
          </mxGeometry>
        </mxCell>
        <mxCell id="aG4er6lKRkwGD2ePPZym-5" value="" style="endArrow=none;html=1;strokeWidth=2;rounded=0;exitX=0;exitY=0;exitDx=0;exitDy=0;" parent="WIyWlLk6GJQsqaUBKTNV-1" edge="1">
          <mxGeometry width="50" height="50" relative="1" as="geometry">
            <mxPoint x="272.48" y="2260" as="sourcePoint" />
            <mxPoint x="272.48" y="2180" as="targetPoint" />
          </mxGeometry>
        </mxCell>
        <mxCell id="aG4er6lKRkwGD2ePPZym-6" value="" style="endArrow=none;html=1;rounded=0;" parent="WIyWlLk6GJQsqaUBKTNV-1" edge="1">
          <mxGeometry width="50" height="50" relative="1" as="geometry">
            <mxPoint x="132.48000000000005" y="2170" as="sourcePoint" />
            <mxPoint x="222.48000000000005" y="2170" as="targetPoint" />
          </mxGeometry>
        </mxCell>
        <mxCell id="aG4er6lKRkwGD2ePPZym-8" value="" style="endArrow=none;html=1;rounded=0;" parent="WIyWlLk6GJQsqaUBKTNV-1" edge="1">
          <mxGeometry width="50" height="50" relative="1" as="geometry">
            <mxPoint x="272.48" y="2180" as="sourcePoint" />
            <mxPoint x="222.48000000000005" y="2170" as="targetPoint" />
          </mxGeometry>
        </mxCell>
        <mxCell id="aG4er6lKRkwGD2ePPZym-9" value="" style="endArrow=baseDash;dashed=1;html=1;rounded=0;startArrow=baseDash;startFill=0;endFill=0;" parent="WIyWlLk6GJQsqaUBKTNV-1" edge="1">
          <mxGeometry width="50" height="50" relative="1" as="geometry">
            <mxPoint x="82.48000000000005" y="2300" as="sourcePoint" />
            <mxPoint x="272.48" y="2300" as="targetPoint" />
          </mxGeometry>
        </mxCell>
        <mxCell id="aG4er6lKRkwGD2ePPZym-10" value="11 in&amp;nbsp;&amp;nbsp;" style="edgeLabel;html=1;align=center;verticalAlign=middle;resizable=0;points=[];" parent="aG4er6lKRkwGD2ePPZym-9" vertex="1" connectable="0">
          <mxGeometry x="0.0742" y="1" relative="1" as="geometry">
            <mxPoint as="offset" />
          </mxGeometry>
        </mxCell>
        <mxCell id="aG4er6lKRkwGD2ePPZym-11" value="" style="endArrow=baseDash;dashed=1;html=1;rounded=0;startArrow=baseDash;startFill=0;endFill=0;" parent="WIyWlLk6GJQsqaUBKTNV-1" edge="1">
          <mxGeometry width="50" height="50" relative="1" as="geometry">
            <mxPoint x="42.48000000000004" y="2179.76" as="sourcePoint" />
            <mxPoint x="42.48000000000004" y="2260" as="targetPoint" />
          </mxGeometry>
        </mxCell>
        <mxCell id="aG4er6lKRkwGD2ePPZym-12" value="5.06" style="edgeLabel;html=1;align=center;verticalAlign=middle;resizable=0;points=[];" parent="aG4er6lKRkwGD2ePPZym-11" vertex="1" connectable="0">
          <mxGeometry x="0.0742" y="1" relative="1" as="geometry">
            <mxPoint as="offset" />
          </mxGeometry>
        </mxCell>
        <mxCell id="aG4er6lKRkwGD2ePPZym-14" value="" style="endArrow=none;html=1;rounded=0;" parent="WIyWlLk6GJQsqaUBKTNV-1" edge="1">
          <mxGeometry width="50" height="50" relative="1" as="geometry">
            <mxPoint x="132.48000000000005" y="2170" as="sourcePoint" />
            <mxPoint x="82.48000000000005" y="2179.66" as="targetPoint" />
          </mxGeometry>
        </mxCell>
        <mxCell id="aG4er6lKRkwGD2ePPZym-15" value="" style="endArrow=baseDash;dashed=1;html=1;rounded=0;startArrow=baseDash;startFill=0;endFill=0;entryX=0.818;entryY=1.033;entryDx=0;entryDy=0;exitX=0.652;exitY=-0.002;exitDx=0;exitDy=0;entryPerimeter=0;exitPerimeter=0;" parent="WIyWlLk6GJQsqaUBKTNV-1" source="aG4er6lKRkwGD2ePPZym-1" target="aG4er6lKRkwGD2ePPZym-1" edge="1">
          <mxGeometry width="50" height="50" relative="1" as="geometry">
            <mxPoint x="172.48000000000005" y="2220" as="sourcePoint" />
            <mxPoint x="242.48000000000005" y="2260" as="targetPoint" />
          </mxGeometry>
        </mxCell>
        <mxCell id="aG4er6lKRkwGD2ePPZym-16" value="28.25 in" style="edgeLabel;html=1;align=center;verticalAlign=middle;resizable=0;points=[];" parent="aG4er6lKRkwGD2ePPZym-15" vertex="1" connectable="0">
          <mxGeometry x="0.0742" y="1" relative="1" as="geometry">
            <mxPoint as="offset" />
          </mxGeometry>
        </mxCell>
        <mxCell id="aG4er6lKRkwGD2ePPZym-17" value="&lt;font size=&quot;1&quot; style=&quot;&quot;&gt;&lt;b style=&quot;font-size: 19px;&quot;&gt;LOCKER VENDABILITY ALGORITHM&lt;/b&gt;&lt;/font&gt;" style="text;html=1;align=center;verticalAlign=middle;whiteSpace=wrap;rounded=0;" parent="WIyWlLk6GJQsqaUBKTNV-1" vertex="1">
          <mxGeometry x="191.41" y="10" width="430" height="30" as="geometry" />
        </mxCell>
        <mxCell id="aG4er6lKRkwGD2ePPZym-99" style="edgeStyle=orthogonalEdgeStyle;rounded=0;orthogonalLoop=1;jettySize=auto;html=1;" parent="WIyWlLk6GJQsqaUBKTNV-1" source="aG4er6lKRkwGD2ePPZym-100" edge="1">
          <mxGeometry relative="1" as="geometry">
            <mxPoint x="396.16" y="861" as="targetPoint" />
          </mxGeometry>
        </mxCell>
        <mxCell id="aG4er6lKRkwGD2ePPZym-112" style="edgeStyle=orthogonalEdgeStyle;rounded=0;orthogonalLoop=1;jettySize=auto;html=1;entryX=0.5;entryY=0;entryDx=0;entryDy=0;" parent="WIyWlLk6GJQsqaUBKTNV-1" source="aG4er6lKRkwGD2ePPZym-121" target="aG4er6lKRkwGD2ePPZym-113" edge="1">
          <mxGeometry relative="1" as="geometry">
            <mxPoint x="567.3500000000001" y="635" as="targetPoint" />
          </mxGeometry>
        </mxCell>
        <mxCell id="aG4er6lKRkwGD2ePPZym-170" value="NO" style="edgeLabel;html=1;align=center;verticalAlign=middle;resizable=0;points=[];" parent="aG4er6lKRkwGD2ePPZym-112" vertex="1" connectable="0">
          <mxGeometry x="-0.5976" y="-4" relative="1" as="geometry">
            <mxPoint x="-8" y="-14" as="offset" />
          </mxGeometry>
        </mxCell>
        <mxCell id="aG4er6lKRkwGD2ePPZym-28" value="Largest Dimension &amp;lt;28.25 in.?" style="rhombus;whiteSpace=wrap;html=1;shadow=0;fontFamily=Helvetica;fontSize=12;align=center;strokeWidth=1;spacing=6;spacingTop=-4;fillColor=#dae8fc;strokeColor=#6c8ebf;" parent="WIyWlLk6GJQsqaUBKTNV-1" vertex="1">
          <mxGeometry x="336.16" y="262.5" width="120" height="115" as="geometry" />
        </mxCell>
        <mxCell id="aG4er6lKRkwGD2ePPZym-31" value="Item Isn&#39;t Vendable" style="rounded=1;whiteSpace=wrap;html=1;fontSize=12;glass=0;strokeWidth=1;shadow=0;fillColor=#f8cecc;strokeColor=#b85450;" parent="WIyWlLk6GJQsqaUBKTNV-1" vertex="1">
          <mxGeometry x="273.90999999999997" y="103.75" width="150" height="32.5" as="geometry" />
        </mxCell>
        <mxCell id="aG4er6lKRkwGD2ePPZym-33" style="edgeStyle=orthogonalEdgeStyle;rounded=0;orthogonalLoop=1;jettySize=auto;html=1;entryX=0;entryY=0.5;entryDx=0;entryDy=0;" parent="WIyWlLk6GJQsqaUBKTNV-1" source="aG4er6lKRkwGD2ePPZym-32" target="aG4er6lKRkwGD2ePPZym-31" edge="1">
          <mxGeometry relative="1" as="geometry" />
        </mxCell>
        <mxCell id="aG4er6lKRkwGD2ePPZym-35" value="No" style="edgeLabel;html=1;align=center;verticalAlign=middle;resizable=0;points=[];" parent="aG4er6lKRkwGD2ePPZym-33" vertex="1" connectable="0">
          <mxGeometry x="-0.3867" y="-1" relative="1" as="geometry">
            <mxPoint x="48" y="-1" as="offset" />
          </mxGeometry>
        </mxCell>
        <mxCell id="aG4er6lKRkwGD2ePPZym-34" style="edgeStyle=orthogonalEdgeStyle;rounded=0;orthogonalLoop=1;jettySize=auto;html=1;entryX=0.5;entryY=0;entryDx=0;entryDy=0;" parent="WIyWlLk6GJQsqaUBKTNV-1" source="aG4er6lKRkwGD2ePPZym-32" target="WIyWlLk6GJQsqaUBKTNV-6" edge="1">
          <mxGeometry relative="1" as="geometry" />
        </mxCell>
        <mxCell id="aG4er6lKRkwGD2ePPZym-36" value="Yes" style="edgeLabel;html=1;align=center;verticalAlign=middle;resizable=0;points=[];" parent="aG4er6lKRkwGD2ePPZym-34" vertex="1" connectable="0">
          <mxGeometry x="-0.2667" relative="1" as="geometry">
            <mxPoint as="offset" />
          </mxGeometry>
        </mxCell>
        <mxCell id="aG4er6lKRkwGD2ePPZym-32" value="Weight &amp;lt; 70lbs.?" style="rhombus;whiteSpace=wrap;html=1;shadow=0;fontFamily=Helvetica;fontSize=12;align=center;strokeWidth=1;spacing=6;spacingTop=-4;fillColor=#dae8fc;strokeColor=#6c8ebf;" parent="WIyWlLk6GJQsqaUBKTNV-1" vertex="1">
          <mxGeometry x="18.909999999999997" y="70" width="110" height="100" as="geometry" />
        </mxCell>
        <mxCell id="aG4er6lKRkwGD2ePPZym-40" value="" style="edgeStyle=orthogonalEdgeStyle;rounded=0;orthogonalLoop=1;jettySize=auto;html=1;endArrow=none;endFill=0;startArrow=classic;startFill=1;exitX=0.5;exitY=0;exitDx=0;exitDy=0;" parent="WIyWlLk6GJQsqaUBKTNV-1" source="aG4er6lKRkwGD2ePPZym-54" target="WIyWlLk6GJQsqaUBKTNV-6" edge="1">
          <mxGeometry relative="1" as="geometry">
            <mxPoint x="73.91" y="625" as="sourcePoint" />
          </mxGeometry>
        </mxCell>
        <mxCell id="aG4er6lKRkwGD2ePPZym-51" value="YES" style="edgeLabel;html=1;align=center;verticalAlign=middle;resizable=0;points=[];" parent="aG4er6lKRkwGD2ePPZym-40" vertex="1" connectable="0">
          <mxGeometry x="0.1474" y="-3" relative="1" as="geometry">
            <mxPoint as="offset" />
          </mxGeometry>
        </mxCell>
        <mxCell id="aG4er6lKRkwGD2ePPZym-52" value="Item Doesn&#39;t Fit" style="rounded=1;whiteSpace=wrap;html=1;fontSize=12;glass=0;strokeWidth=1;shadow=0;fillColor=#f8cecc;strokeColor=#b85450;" parent="WIyWlLk6GJQsqaUBKTNV-1" vertex="1">
          <mxGeometry x="203.91" y="928.75" width="127.81" height="32.5" as="geometry" />
        </mxCell>
        <mxCell id="aG4er6lKRkwGD2ePPZym-59" style="edgeStyle=orthogonalEdgeStyle;rounded=0;orthogonalLoop=1;jettySize=auto;html=1;entryX=0.5;entryY=0;entryDx=0;entryDy=0;" parent="WIyWlLk6GJQsqaUBKTNV-1" source="aG4er6lKRkwGD2ePPZym-54" target="aG4er6lKRkwGD2ePPZym-56" edge="1">
          <mxGeometry relative="1" as="geometry" />
        </mxCell>
        <mxCell id="aG4er6lKRkwGD2ePPZym-61" value="Yes" style="edgeLabel;html=1;align=center;verticalAlign=middle;resizable=0;points=[];" parent="aG4er6lKRkwGD2ePPZym-59" vertex="1" connectable="0">
          <mxGeometry x="-0.1511" y="-1" relative="1" as="geometry">
            <mxPoint as="offset" />
          </mxGeometry>
        </mxCell>
        <mxCell id="aG4er6lKRkwGD2ePPZym-63" style="edgeStyle=orthogonalEdgeStyle;rounded=0;orthogonalLoop=1;jettySize=auto;html=1;entryX=0.5;entryY=0;entryDx=0;entryDy=0;" parent="WIyWlLk6GJQsqaUBKTNV-1" source="aG4er6lKRkwGD2ePPZym-54" target="aG4er6lKRkwGD2ePPZym-52" edge="1">
          <mxGeometry relative="1" as="geometry">
            <mxPoint x="293.90999999999997" y="595" as="targetPoint" />
          </mxGeometry>
        </mxCell>
        <mxCell id="aG4er6lKRkwGD2ePPZym-64" value="NO" style="edgeLabel;html=1;align=center;verticalAlign=middle;resizable=0;points=[];" parent="aG4er6lKRkwGD2ePPZym-63" vertex="1" connectable="0">
          <mxGeometry x="0.0623" y="3" relative="1" as="geometry">
            <mxPoint as="offset" />
          </mxGeometry>
        </mxCell>
        <mxCell id="aG4er6lKRkwGD2ePPZym-54" value="Biggest Dimension (Other than Item Height) &amp;gt; 28.25in ?" style="rhombus;whiteSpace=wrap;html=1;shadow=0;fontFamily=Helvetica;fontSize=12;align=center;strokeWidth=1;spacing=6;spacingTop=-4;fillColor=#dae8fc;strokeColor=#6c8ebf;" parent="WIyWlLk6GJQsqaUBKTNV-1" vertex="1">
          <mxGeometry y="505" width="147.81" height="145" as="geometry" />
        </mxCell>
        <mxCell id="aG4er6lKRkwGD2ePPZym-55" value="NO" style="edgeLabel;html=1;align=center;verticalAlign=middle;resizable=0;points=[];" parent="WIyWlLk6GJQsqaUBKTNV-1" vertex="1" connectable="0">
          <mxGeometry x="195.2900000000001" y="750" as="geometry" />
        </mxCell>
        <mxCell id="aG4er6lKRkwGD2ePPZym-68" style="edgeStyle=orthogonalEdgeStyle;rounded=0;orthogonalLoop=1;jettySize=auto;html=1;entryX=0.5;entryY=0;entryDx=0;entryDy=0;" parent="WIyWlLk6GJQsqaUBKTNV-1" source="aG4er6lKRkwGD2ePPZym-56" target="aG4er6lKRkwGD2ePPZym-67" edge="1">
          <mxGeometry relative="1" as="geometry" />
        </mxCell>
        <mxCell id="aG4er6lKRkwGD2ePPZym-69" value="YES" style="edgeLabel;html=1;align=center;verticalAlign=middle;resizable=0;points=[];" parent="aG4er6lKRkwGD2ePPZym-68" vertex="1" connectable="0">
          <mxGeometry x="-0.4436" y="1" relative="1" as="geometry">
            <mxPoint x="19" y="15" as="offset" />
          </mxGeometry>
        </mxCell>
        <mxCell id="aG4er6lKRkwGD2ePPZym-82" style="edgeStyle=orthogonalEdgeStyle;rounded=0;orthogonalLoop=1;jettySize=auto;html=1;entryX=0.25;entryY=0;entryDx=0;entryDy=0;" parent="WIyWlLk6GJQsqaUBKTNV-1" source="aG4er6lKRkwGD2ePPZym-56" target="aG4er6lKRkwGD2ePPZym-52" edge="1">
          <mxGeometry relative="1" as="geometry">
            <mxPoint x="245.72000000000003" y="930" as="targetPoint" />
          </mxGeometry>
        </mxCell>
        <mxCell id="aG4er6lKRkwGD2ePPZym-56" value="Item Height &amp;lt;&amp;nbsp; 36 in in?" style="rhombus;whiteSpace=wrap;html=1;shadow=0;fontFamily=Helvetica;fontSize=12;align=center;strokeWidth=1;spacing=6;spacingTop=-4;fillColor=#dae8fc;strokeColor=#6c8ebf;" parent="WIyWlLk6GJQsqaUBKTNV-1" vertex="1">
          <mxGeometry x="13.909999999999997" y="702.5" width="120" height="95" as="geometry" />
        </mxCell>
        <mxCell id="aG4er6lKRkwGD2ePPZym-72" style="edgeStyle=orthogonalEdgeStyle;rounded=0;orthogonalLoop=1;jettySize=auto;html=1;entryX=0.5;entryY=0;entryDx=0;entryDy=0;exitX=0.5;exitY=1;exitDx=0;exitDy=0;" parent="WIyWlLk6GJQsqaUBKTNV-1" source="aG4er6lKRkwGD2ePPZym-67" target="aG4er6lKRkwGD2ePPZym-73" edge="1">
          <mxGeometry relative="1" as="geometry">
            <mxPoint x="73.91" y="1601.05" as="targetPoint" />
            <mxPoint x="73.90499999999994" y="1170" as="sourcePoint" />
            <Array as="points">
              <mxPoint x="73.72" y="1336" />
              <mxPoint x="301.72" y="1336" />
            </Array>
          </mxGeometry>
        </mxCell>
        <mxCell id="aG4er6lKRkwGD2ePPZym-83" style="edgeStyle=orthogonalEdgeStyle;rounded=0;orthogonalLoop=1;jettySize=auto;html=1;entryX=0;entryY=0.5;entryDx=0;entryDy=0;" parent="WIyWlLk6GJQsqaUBKTNV-1" source="aG4er6lKRkwGD2ePPZym-67" target="aG4er6lKRkwGD2ePPZym-52" edge="1">
          <mxGeometry relative="1" as="geometry" />
        </mxCell>
        <mxCell id="aG4er6lKRkwGD2ePPZym-67" value="Next Dimension &amp;lt; 11in?" style="rhombus;whiteSpace=wrap;html=1;shadow=0;fontFamily=Helvetica;fontSize=12;align=center;strokeWidth=1;spacing=6;spacingTop=-4;fillColor=#dae8fc;strokeColor=#6c8ebf;" parent="WIyWlLk6GJQsqaUBKTNV-1" vertex="1">
          <mxGeometry x="7.810000000000002" y="890" width="132.19" height="110" as="geometry" />
        </mxCell>
        <mxCell id="aG4er6lKRkwGD2ePPZym-195" style="edgeStyle=orthogonalEdgeStyle;rounded=0;orthogonalLoop=1;jettySize=auto;html=1;" parent="WIyWlLk6GJQsqaUBKTNV-1" source="aG4er6lKRkwGD2ePPZym-73" target="aG4er6lKRkwGD2ePPZym-164" edge="1">
          <mxGeometry relative="1" as="geometry" />
        </mxCell>
        <mxCell id="aG4er6lKRkwGD2ePPZym-73" value="&lt;b&gt;Item Is Vendable, Calculate Capacity&amp;nbsp;&lt;/b&gt;" style="rounded=1;whiteSpace=wrap;html=1;fontSize=12;glass=0;strokeWidth=1;shadow=0;fillColor=#f8cecc;strokeColor=#b85450;" parent="WIyWlLk6GJQsqaUBKTNV-1" vertex="1">
          <mxGeometry x="243.90999999999997" y="1400" width="115" height="60" as="geometry" />
        </mxCell>
        <mxCell id="aG4er6lKRkwGD2ePPZym-113" value="Item Doesn&#39;t Fit" style="rounded=1;whiteSpace=wrap;html=1;fontSize=12;glass=0;strokeWidth=1;shadow=0;fillColor=#f8cecc;strokeColor=#b85450;" parent="WIyWlLk6GJQsqaUBKTNV-1" vertex="1">
          <mxGeometry x="745.16" y="798.13" width="74.84" height="58.75" as="geometry" />
        </mxCell>
        <mxCell id="aG4er6lKRkwGD2ePPZym-115" value="" style="edgeStyle=orthogonalEdgeStyle;rounded=0;orthogonalLoop=1;jettySize=auto;html=1;" parent="WIyWlLk6GJQsqaUBKTNV-1" source="aG4er6lKRkwGD2ePPZym-28" target="aG4er6lKRkwGD2ePPZym-100" edge="1">
          <mxGeometry relative="1" as="geometry">
            <mxPoint x="387.3500000000001" y="515" as="targetPoint" />
            <mxPoint x="387.3500000000001" y="378" as="sourcePoint" />
          </mxGeometry>
        </mxCell>
        <mxCell id="aG4er6lKRkwGD2ePPZym-186" style="edgeStyle=orthogonalEdgeStyle;rounded=0;orthogonalLoop=1;jettySize=auto;html=1;entryX=0;entryY=0.5;entryDx=0;entryDy=0;" parent="WIyWlLk6GJQsqaUBKTNV-1" source="aG4er6lKRkwGD2ePPZym-100" target="aG4er6lKRkwGD2ePPZym-166" edge="1">
          <mxGeometry relative="1" as="geometry" />
        </mxCell>
        <mxCell id="aG4er6lKRkwGD2ePPZym-100" value="Second Largest Dimension &amp;lt;11&amp;nbsp; in.?" style="rhombus;whiteSpace=wrap;html=1;shadow=0;fontFamily=Helvetica;fontSize=12;align=center;strokeWidth=1;spacing=6;spacingTop=-4;fillColor=#dae8fc;strokeColor=#6c8ebf;" parent="WIyWlLk6GJQsqaUBKTNV-1" vertex="1">
          <mxGeometry x="336.16" y="770" width="120" height="115" as="geometry" />
        </mxCell>
        <mxCell id="aG4er6lKRkwGD2ePPZym-128" value="" style="edgeStyle=orthogonalEdgeStyle;rounded=0;orthogonalLoop=1;jettySize=auto;html=1;" parent="WIyWlLk6GJQsqaUBKTNV-1" source="aG4er6lKRkwGD2ePPZym-100" target="aG4er6lKRkwGD2ePPZym-123" edge="1">
          <mxGeometry relative="1" as="geometry">
            <mxPoint x="395.96999999999997" y="1026" as="targetPoint" />
            <mxPoint x="395.96999999999997" y="885" as="sourcePoint" />
          </mxGeometry>
        </mxCell>
        <mxCell id="aG4er6lKRkwGD2ePPZym-138" style="edgeStyle=orthogonalEdgeStyle;rounded=0;orthogonalLoop=1;jettySize=auto;html=1;entryX=0.5;entryY=0;entryDx=0;entryDy=0;" parent="WIyWlLk6GJQsqaUBKTNV-1" source="aG4er6lKRkwGD2ePPZym-123" target="aG4er6lKRkwGD2ePPZym-137" edge="1">
          <mxGeometry relative="1" as="geometry" />
        </mxCell>
        <mxCell id="aG4er6lKRkwGD2ePPZym-123" value="Utilize Locker Width Instead of Height" style="rounded=1;whiteSpace=wrap;html=1;fillColor=#e1d5e7;strokeColor=#9673a6;" parent="WIyWlLk6GJQsqaUBKTNV-1" vertex="1">
          <mxGeometry x="353.13000000000005" y="946" width="86.06" height="60" as="geometry" />
        </mxCell>
        <mxCell id="aG4er6lKRkwGD2ePPZym-135" style="edgeStyle=orthogonalEdgeStyle;rounded=0;orthogonalLoop=1;jettySize=auto;html=1;" parent="WIyWlLk6GJQsqaUBKTNV-1" source="aG4er6lKRkwGD2ePPZym-129" target="aG4er6lKRkwGD2ePPZym-133" edge="1">
          <mxGeometry relative="1" as="geometry" />
        </mxCell>
        <mxCell id="aG4er6lKRkwGD2ePPZym-129" value="3 Lockers necessary" style="rounded=1;whiteSpace=wrap;html=1;fillColor=#e1d5e7;strokeColor=#9673a6;" parent="WIyWlLk6GJQsqaUBKTNV-1" vertex="1">
          <mxGeometry x="569.85" y="946" width="88.25" height="60" as="geometry" />
        </mxCell>
        <mxCell id="aG4er6lKRkwGD2ePPZym-139" style="edgeStyle=orthogonalEdgeStyle;rounded=0;orthogonalLoop=1;jettySize=auto;html=1;entryX=0;entryY=0.5;entryDx=0;entryDy=0;" parent="WIyWlLk6GJQsqaUBKTNV-1" source="aG4er6lKRkwGD2ePPZym-133" target="aG4er6lKRkwGD2ePPZym-113" edge="1">
          <mxGeometry relative="1" as="geometry" />
        </mxCell>
        <mxCell id="aG4er6lKRkwGD2ePPZym-149" style="edgeStyle=orthogonalEdgeStyle;rounded=0;orthogonalLoop=1;jettySize=auto;html=1;endArrow=none;endFill=0;" parent="WIyWlLk6GJQsqaUBKTNV-1" source="aG4er6lKRkwGD2ePPZym-133" edge="1">
          <mxGeometry relative="1" as="geometry">
            <mxPoint x="613.97" y="1336" as="targetPoint" />
          </mxGeometry>
        </mxCell>
        <mxCell id="aG4er6lKRkwGD2ePPZym-133" value="Final Dimension &amp;lt;11 in?" style="rhombus;whiteSpace=wrap;html=1;shadow=0;fontFamily=Helvetica;fontSize=12;align=center;strokeWidth=1;spacing=6;spacingTop=-4;fillColor=#dae8fc;strokeColor=#6c8ebf;" parent="WIyWlLk6GJQsqaUBKTNV-1" vertex="1">
          <mxGeometry x="566.0400000000001" y="1066" width="95.87" height="90" as="geometry" />
        </mxCell>
        <mxCell id="aG4er6lKRkwGD2ePPZym-142" style="edgeStyle=orthogonalEdgeStyle;rounded=0;orthogonalLoop=1;jettySize=auto;html=1;entryX=0.5;entryY=0;entryDx=0;entryDy=0;" parent="WIyWlLk6GJQsqaUBKTNV-1" source="aG4er6lKRkwGD2ePPZym-137" target="aG4er6lKRkwGD2ePPZym-144" edge="1">
          <mxGeometry relative="1" as="geometry">
            <mxPoint x="513.97" y="1286" as="targetPoint" />
          </mxGeometry>
        </mxCell>
        <mxCell id="aG4er6lKRkwGD2ePPZym-143" style="edgeStyle=orthogonalEdgeStyle;rounded=0;orthogonalLoop=1;jettySize=auto;html=1;entryX=0.468;entryY=0.026;entryDx=0;entryDy=0;entryPerimeter=0;" parent="WIyWlLk6GJQsqaUBKTNV-1" source="aG4er6lKRkwGD2ePPZym-137" target="aG4er6lKRkwGD2ePPZym-146" edge="1">
          <mxGeometry relative="1" as="geometry">
            <mxPoint x="395.96999999999997" y="1216" as="targetPoint" />
          </mxGeometry>
        </mxCell>
        <mxCell id="aG4er6lKRkwGD2ePPZym-137" value="Final Dimension &amp;lt; 5.06 in?&amp;nbsp;" style="rhombus;whiteSpace=wrap;html=1;shadow=0;fontFamily=Helvetica;fontSize=12;align=center;strokeWidth=1;spacing=6;spacingTop=-4;fillColor=#dae8fc;strokeColor=#6c8ebf;" parent="WIyWlLk6GJQsqaUBKTNV-1" vertex="1">
          <mxGeometry x="348.22999999999996" y="1066" width="95.87" height="90" as="geometry" />
        </mxCell>
        <mxCell id="aG4er6lKRkwGD2ePPZym-151" style="edgeStyle=orthogonalEdgeStyle;rounded=0;orthogonalLoop=1;jettySize=auto;html=1;endArrow=none;endFill=0;" parent="WIyWlLk6GJQsqaUBKTNV-1" source="aG4er6lKRkwGD2ePPZym-144" edge="1">
          <mxGeometry relative="1" as="geometry">
            <mxPoint x="518.97" y="1336" as="targetPoint" />
          </mxGeometry>
        </mxCell>
        <mxCell id="aG4er6lKRkwGD2ePPZym-144" value="2 Lockers Necessary" style="rounded=1;whiteSpace=wrap;html=1;fontSize=12;glass=0;strokeWidth=1;shadow=0;fillColor=#e1d5e7;strokeColor=#9673a6;" parent="WIyWlLk6GJQsqaUBKTNV-1" vertex="1">
          <mxGeometry x="464.09999999999997" y="1226" width="109.87" height="32.5" as="geometry" />
        </mxCell>
        <mxCell id="aG4er6lKRkwGD2ePPZym-152" style="edgeStyle=orthogonalEdgeStyle;rounded=0;orthogonalLoop=1;jettySize=auto;html=1;endArrow=none;endFill=0;" parent="WIyWlLk6GJQsqaUBKTNV-1" source="aG4er6lKRkwGD2ePPZym-146" edge="1">
          <mxGeometry relative="1" as="geometry">
            <mxPoint x="398.96999999999997" y="1336" as="targetPoint" />
          </mxGeometry>
        </mxCell>
        <mxCell id="aG4er6lKRkwGD2ePPZym-146" value="Only 1 Locker Necessary" style="rounded=1;whiteSpace=wrap;html=1;fontSize=12;glass=0;strokeWidth=1;shadow=0;fillColor=#e1d5e7;strokeColor=#9673a6;" parent="WIyWlLk6GJQsqaUBKTNV-1" vertex="1">
          <mxGeometry x="344.09999999999997" y="1226" width="109.87" height="32.5" as="geometry" />
        </mxCell>
        <mxCell id="aG4er6lKRkwGD2ePPZym-153" value="" style="endArrow=none;html=1;rounded=0;" parent="WIyWlLk6GJQsqaUBKTNV-1" edge="1">
          <mxGeometry width="50" height="50" relative="1" as="geometry">
            <mxPoint x="398.96999999999997" y="1336" as="sourcePoint" />
            <mxPoint x="612.97" y="1336" as="targetPoint" />
          </mxGeometry>
        </mxCell>
        <mxCell id="aG4er6lKRkwGD2ePPZym-159" value="" style="endArrow=none;html=1;rounded=0;" parent="WIyWlLk6GJQsqaUBKTNV-1" edge="1">
          <mxGeometry width="50" height="50" relative="1" as="geometry">
            <mxPoint x="301.72" y="1336.05" as="sourcePoint" />
            <mxPoint x="541.72" y="1336.05" as="targetPoint" />
          </mxGeometry>
        </mxCell>
        <mxCell id="aG4er6lKRkwGD2ePPZym-196" style="edgeStyle=orthogonalEdgeStyle;rounded=0;orthogonalLoop=1;jettySize=auto;html=1;" parent="WIyWlLk6GJQsqaUBKTNV-1" source="aG4er6lKRkwGD2ePPZym-164" edge="1">
          <mxGeometry relative="1" as="geometry">
            <mxPoint x="301.4100000000001" y="1720" as="targetPoint" />
          </mxGeometry>
        </mxCell>
        <mxCell id="aG4er6lKRkwGD2ePPZym-197" value="YES" style="edgeLabel;html=1;align=center;verticalAlign=middle;resizable=0;points=[];" parent="aG4er6lKRkwGD2ePPZym-196" vertex="1" connectable="0">
          <mxGeometry x="-0.2671" y="1" relative="1" as="geometry">
            <mxPoint as="offset" />
          </mxGeometry>
        </mxCell>
        <mxCell id="aG4er6lKRkwGD2ePPZym-201" style="edgeStyle=orthogonalEdgeStyle;rounded=0;orthogonalLoop=1;jettySize=auto;html=1;" parent="WIyWlLk6GJQsqaUBKTNV-1" source="aG4er6lKRkwGD2ePPZym-164" target="aG4er6lKRkwGD2ePPZym-192" edge="1">
          <mxGeometry relative="1" as="geometry" />
        </mxCell>
        <mxCell id="aG4er6lKRkwGD2ePPZym-164" value="Stackable &amp;amp;&amp;amp; Only One Locker Door Needed?&amp;nbsp;" style="rhombus;whiteSpace=wrap;html=1;fillColor=#dae8fc;strokeColor=#6c8ebf;" parent="WIyWlLk6GJQsqaUBKTNV-1" vertex="1">
          <mxGeometry x="233.41" y="1510" width="136" height="120" as="geometry" />
        </mxCell>
        <mxCell id="aG4er6lKRkwGD2ePPZym-188" style="edgeStyle=orthogonalEdgeStyle;rounded=0;orthogonalLoop=1;jettySize=auto;html=1;entryX=0;entryY=0.5;entryDx=0;entryDy=0;" parent="WIyWlLk6GJQsqaUBKTNV-1" source="aG4er6lKRkwGD2ePPZym-166" target="aG4er6lKRkwGD2ePPZym-113" edge="1">
          <mxGeometry relative="1" as="geometry" />
        </mxCell>
        <mxCell id="aG4er6lKRkwGD2ePPZym-166" value="&amp;nbsp;&amp;lt; 17 in?" style="rhombus;whiteSpace=wrap;html=1;fillColor=#dae8fc;strokeColor=#6c8ebf;" parent="WIyWlLk6GJQsqaUBKTNV-1" vertex="1">
          <mxGeometry x="567.61" y="787.5" width="80" height="80" as="geometry" />
        </mxCell>
        <mxCell id="aG4er6lKRkwGD2ePPZym-167" value="" style="edgeStyle=orthogonalEdgeStyle;rounded=0;orthogonalLoop=1;jettySize=auto;html=1;entryX=0;entryY=0.5;entryDx=0;entryDy=0;" parent="WIyWlLk6GJQsqaUBKTNV-1" source="aG4er6lKRkwGD2ePPZym-28" target="aG4er6lKRkwGD2ePPZym-121" edge="1">
          <mxGeometry relative="1" as="geometry">
            <mxPoint x="815.1600000000001" y="820" as="targetPoint" />
            <mxPoint x="447.16" y="320" as="sourcePoint" />
          </mxGeometry>
        </mxCell>
        <mxCell id="aG4er6lKRkwGD2ePPZym-168" value="NO" style="edgeLabel;html=1;align=center;verticalAlign=middle;resizable=0;points=[];" parent="aG4er6lKRkwGD2ePPZym-167" vertex="1" connectable="0">
          <mxGeometry x="-0.8563" y="3" relative="1" as="geometry">
            <mxPoint y="-7" as="offset" />
          </mxGeometry>
        </mxCell>
        <mxCell id="aG4er6lKRkwGD2ePPZym-174" style="edgeStyle=orthogonalEdgeStyle;rounded=0;orthogonalLoop=1;jettySize=auto;html=1;" parent="WIyWlLk6GJQsqaUBKTNV-1" source="aG4er6lKRkwGD2ePPZym-121" edge="1">
          <mxGeometry relative="1" as="geometry">
            <mxPoint x="609.1600000000001" y="420" as="targetPoint" />
          </mxGeometry>
        </mxCell>
        <mxCell id="aG4er6lKRkwGD2ePPZym-121" value="&amp;nbsp;&amp;lt; 72.38 in?" style="rhombus;whiteSpace=wrap;html=1;fillColor=#dae8fc;strokeColor=#6c8ebf;" parent="WIyWlLk6GJQsqaUBKTNV-1" vertex="1">
          <mxGeometry x="569.2900000000001" y="280" width="80" height="80" as="geometry" />
        </mxCell>
        <mxCell id="aG4er6lKRkwGD2ePPZym-169" value="//Max Locker Height with 12 Doors" style="text;html=1;align=center;verticalAlign=middle;resizable=0;points=[];autosize=1;strokeColor=none;fillColor=none;" parent="WIyWlLk6GJQsqaUBKTNV-1" vertex="1">
          <mxGeometry x="504.29" y="250" width="210" height="30" as="geometry" />
        </mxCell>
        <mxCell id="aG4er6lKRkwGD2ePPZym-179" style="edgeStyle=orthogonalEdgeStyle;rounded=0;orthogonalLoop=1;jettySize=auto;html=1;entryX=0.5;entryY=0;entryDx=0;entryDy=0;" parent="WIyWlLk6GJQsqaUBKTNV-1" source="aG4er6lKRkwGD2ePPZym-177" target="aG4er6lKRkwGD2ePPZym-178" edge="1">
          <mxGeometry relative="1" as="geometry" />
        </mxCell>
        <mxCell id="aG4er6lKRkwGD2ePPZym-180" style="edgeStyle=orthogonalEdgeStyle;rounded=0;orthogonalLoop=1;jettySize=auto;html=1;" parent="WIyWlLk6GJQsqaUBKTNV-1" source="aG4er6lKRkwGD2ePPZym-177" edge="1">
          <mxGeometry relative="1" as="geometry">
            <mxPoint x="780" y="460" as="targetPoint" />
          </mxGeometry>
        </mxCell>
        <mxCell id="aG4er6lKRkwGD2ePPZym-177" value="Second Largest Dimension &amp;lt;28.25?" style="rhombus;whiteSpace=wrap;html=1;shadow=0;fontFamily=Helvetica;fontSize=12;align=center;strokeWidth=1;spacing=6;spacingTop=-4;fillColor=#dae8fc;strokeColor=#6c8ebf;" parent="WIyWlLk6GJQsqaUBKTNV-1" vertex="1">
          <mxGeometry x="561.26" y="420" width="92.71" height="80" as="geometry" />
        </mxCell>
        <mxCell id="aG4er6lKRkwGD2ePPZym-185" style="edgeStyle=orthogonalEdgeStyle;rounded=0;orthogonalLoop=1;jettySize=auto;html=1;" parent="WIyWlLk6GJQsqaUBKTNV-1" source="aG4er6lKRkwGD2ePPZym-178" target="aG4er6lKRkwGD2ePPZym-184" edge="1">
          <mxGeometry relative="1" as="geometry" />
        </mxCell>
        <mxCell id="aG4er6lKRkwGD2ePPZym-178" value="Third Largest Dimension &amp;lt;11 in?" style="rhombus;whiteSpace=wrap;html=1;shadow=0;fontFamily=Helvetica;fontSize=12;align=center;strokeWidth=1;spacing=6;spacingTop=-4;fillColor=#dae8fc;strokeColor=#6c8ebf;" parent="WIyWlLk6GJQsqaUBKTNV-1" vertex="1">
          <mxGeometry x="564.0100000000001" y="560" width="87.22" height="70" as="geometry" />
        </mxCell>
        <mxCell id="aG4er6lKRkwGD2ePPZym-183" style="edgeStyle=orthogonalEdgeStyle;rounded=0;orthogonalLoop=1;jettySize=auto;html=1;" parent="WIyWlLk6GJQsqaUBKTNV-1" edge="1">
          <mxGeometry relative="1" as="geometry">
            <mxPoint x="780" y="594" as="targetPoint" />
            <mxPoint x="653.97" y="594.47" as="sourcePoint" />
          </mxGeometry>
        </mxCell>
        <mxCell id="aG4er6lKRkwGD2ePPZym-184" value="&lt;b&gt;Item Is Vendable, Calculate Capacity&amp;nbsp;&lt;/b&gt;" style="rounded=1;whiteSpace=wrap;html=1;fontSize=12;glass=0;strokeWidth=1;shadow=0;fillColor=#f8cecc;strokeColor=#b85450;" parent="WIyWlLk6GJQsqaUBKTNV-1" vertex="1">
          <mxGeometry x="547.5699999999999" y="680" width="120.07" height="60" as="geometry" />
        </mxCell>
        <mxCell id="aG4er6lKRkwGD2ePPZym-187" style="edgeStyle=orthogonalEdgeStyle;rounded=0;orthogonalLoop=1;jettySize=auto;html=1;entryX=0.426;entryY=0.018;entryDx=0;entryDy=0;entryPerimeter=0;" parent="WIyWlLk6GJQsqaUBKTNV-1" source="aG4er6lKRkwGD2ePPZym-166" target="aG4er6lKRkwGD2ePPZym-129" edge="1">
          <mxGeometry relative="1" as="geometry" />
        </mxCell>
        <mxCell id="GsenrvmosLcp_BB_OSLJ-0" style="edgeStyle=orthogonalEdgeStyle;rounded=0;orthogonalLoop=1;jettySize=auto;html=1;" parent="WIyWlLk6GJQsqaUBKTNV-1" source="aG4er6lKRkwGD2ePPZym-192" target="GsenrvmosLcp_BB_OSLJ-3" edge="1">
          <mxGeometry relative="1" as="geometry">
            <mxPoint x="578.275" y="1650" as="targetPoint" />
          </mxGeometry>
        </mxCell>
        <mxCell id="aG4er6lKRkwGD2ePPZym-192" value="&lt;b&gt;Capacity&lt;/b&gt; = (Storage Width / Item Width ) * (Storage Depth / Item Depth)" style="rounded=1;whiteSpace=wrap;html=1;fillColor=#f8cecc;strokeColor=#b85450;" parent="WIyWlLk6GJQsqaUBKTNV-1" vertex="1">
          <mxGeometry x="468.2700000000001" y="1542.5" width="220" height="55" as="geometry" />
        </mxCell>
        <mxCell id="GsenrvmosLcp_BB_OSLJ-1" style="edgeStyle=orthogonalEdgeStyle;rounded=0;orthogonalLoop=1;jettySize=auto;html=1;entryX=0;entryY=0.5;entryDx=0;entryDy=0;" parent="WIyWlLk6GJQsqaUBKTNV-1" source="aG4er6lKRkwGD2ePPZym-198" target="GsenrvmosLcp_BB_OSLJ-3" edge="1">
          <mxGeometry relative="1" as="geometry">
            <mxPoint x="530" y="1750" as="targetPoint" />
          </mxGeometry>
        </mxCell>
        <mxCell id="aG4er6lKRkwGD2ePPZym-198" value="&lt;b&gt;Capacity&lt;/b&gt; = (Storage Width / Item Width ) * (Storage Depth / Item Depth) * (Storage Height / Item Height)" style="rounded=1;whiteSpace=wrap;html=1;fillColor=#f8cecc;strokeColor=#b85450;" parent="WIyWlLk6GJQsqaUBKTNV-1" vertex="1">
          <mxGeometry x="191.41" y="1720" width="220" height="60" as="geometry" />
        </mxCell>
        <mxCell id="aG4er6lKRkwGD2ePPZym-203" value="Note: This is all based assuming rotation is limited to 90 degree increments. More accuracy may be gained by using pythagorean theorem to calculate maximum height and depth, but that would be difficult.&amp;nbsp;" style="rounded=0;whiteSpace=wrap;html=1;" parent="WIyWlLk6GJQsqaUBKTNV-1" vertex="1">
          <mxGeometry x="620" y="2110" width="170" height="170" as="geometry" />
        </mxCell>
        <mxCell id="GsenrvmosLcp_BB_OSLJ-6" style="edgeStyle=orthogonalEdgeStyle;rounded=0;orthogonalLoop=1;jettySize=auto;html=1;entryX=0.5;entryY=0;entryDx=0;entryDy=0;" parent="WIyWlLk6GJQsqaUBKTNV-1" source="GsenrvmosLcp_BB_OSLJ-3" target="GsenrvmosLcp_BB_OSLJ-4" edge="1">
          <mxGeometry relative="1" as="geometry" />
        </mxCell>
        <mxCell id="GsenrvmosLcp_BB_OSLJ-9" style="edgeStyle=orthogonalEdgeStyle;rounded=0;orthogonalLoop=1;jettySize=auto;html=1;entryX=0;entryY=0.5;entryDx=0;entryDy=0;" parent="WIyWlLk6GJQsqaUBKTNV-1" source="GsenrvmosLcp_BB_OSLJ-3" target="GsenrvmosLcp_BB_OSLJ-7" edge="1">
          <mxGeometry relative="1" as="geometry" />
        </mxCell>
        <mxCell id="GsenrvmosLcp_BB_OSLJ-3" value="Capacity * item_weight &amp;gt; Locker_weight_cap?" style="rhombus;whiteSpace=wrap;html=1;fillColor=#dae8fc;strokeColor=#6c8ebf;" parent="WIyWlLk6GJQsqaUBKTNV-1" vertex="1">
          <mxGeometry x="513.27" y="1685" width="130" height="130" as="geometry" />
        </mxCell>
        <mxCell id="GsenrvmosLcp_BB_OSLJ-4" value="&lt;b&gt;return&lt;/b&gt; max number based on weight" style="rounded=1;whiteSpace=wrap;html=1;fillColor=#f8cecc;strokeColor=#b85450;" parent="WIyWlLk6GJQsqaUBKTNV-1" vertex="1">
          <mxGeometry x="514.3000000000001" y="1880" width="127.93" height="60" as="geometry" />
        </mxCell>
        <mxCell id="GsenrvmosLcp_BB_OSLJ-7" value="&lt;b&gt;return&lt;/b&gt; Capacity" style="rounded=1;whiteSpace=wrap;html=1;fillColor=#f8cecc;strokeColor=#b85450;" parent="WIyWlLk6GJQsqaUBKTNV-1" vertex="1">
          <mxGeometry x="707.61" y="1720" width="90" height="60" as="geometry" />
        </mxCell>
        <mxCell id="XjgNQ5CW2p1eKXSJff2--0" value="Must Be stored Vertically?&amp;nbsp;" style="rhombus;whiteSpace=wrap;html=1;shadow=0;fontFamily=Helvetica;fontSize=12;align=center;strokeWidth=1;spacing=6;spacingTop=-4;fillColor=#dae8fc;strokeColor=#6c8ebf;" vertex="1" parent="WIyWlLk6GJQsqaUBKTNV-1">
          <mxGeometry x="13.909999999999997" y="262.5" width="120" height="110" as="geometry" />
        </mxCell>
      </root>
    </mxGraphModel>
  </diagram>
</mxfile>
